# AST/ASF file generated using VICON BodyLanguage
# -----------------------------------------------
:version 1.10
:name VICON
:units
  mass 1.0
  length 0.45
  angle deg
:documentation
   .ast/.asf automatically generated from VICON data using
   VICON BodyBuilder and BodyLanguage model FoxedUp or BRILLIANT.MOD
:root
   order TX TY TZ RX RY RZ
   axis XYZ
   position 0 0 0  
   orientation 0 0 0 
:bonedata
  begin
     id 1 
     name lhipjoint
     direction 0.570549 -0.739093 0.358072 
     length 2.41801 
     axis 0 0 0  XYZ
  end
  begin
     id 2 
     name lfemur
     direction 0.34202 -0.939693 0  
     length 7.44434  
     axis 0 0 20  XYZ
    dof rx ry rz
    limits (-160.0 20.0)
           (-70.0 70.0)
           (-60.0 70.0)
  end
  begin
     id 3 
     name ltibia
     direction 0.34202 -0.939693 0   
     length 7.60047   
     axis 0 0 20   XYZ
    dof rx
    limits (-10.0 170.0)
  end
  begin
     id 4 
     name lfoot
     direction 0.0909041 -0.249757 0.964032   
     length 2.03437   
     axis -90 7.62852e-016 20   XYZ
    dof rx rz
    limits (-45.0 90.0)
           (-70.0 20.0)
  end
  begin
     id 5 
     name ltoes
     direction 1.53547e-011 -4.2174e-011 1   
     length 1.02054   
     axis -90 7.62852e-016 20   XYZ
    dof rx
    limits (-90.0 20.0)
  end
  begin
     id 6 
     name rhipjoint
     direction -0.558096 -0.746754 0.361784   
     length 2.3932  
     axis 0 0 0  XYZ 
  end
  begin
     id 7 
     name rfemur
     direction -0.34202 -0.939693 0   
     length 7.3886   
     axis 0 0 -20   XYZ
    dof rx ry rz
    limits (-160.0 20.0)
           (-70.0 70.0)
           (-70.0 60.0)
  end
  begin
     id 8 
     name rtibia
     direction -0.34202 -0.939693 0   
     length 7.4839   
     axis 0 0 -20   XYZ
    dof rx
    limits (-10.0 170.0)
 end
 begin
     id 9 
     name rfoot
     direction -0.114619 -0.314914 0.942174   
     length 2.25127  
     axis -90 -7.62852e-016 -20   XYZ
    dof rx rz
    limits (-45.0 90.0)
           (-20.0 70.0)
  end
  begin
     id 10 
     name rtoes
     direction -1.53518e-011 -4.21881e-011 1   
     length 1.11821   
     axis -90 -7.62852e-016 -20   XYZ
    dof rx
    limits (-90.0 20.0)
  end
  begin
     id 11 
     name lowerback
     direction -0.00902269 0.996426 -0.0839821   
     length 2.25052   
     axis 0 0 0   XYZ
    dof rx ry rz
    limits (-20.0 45.0)
           (-30.0 30.0)
           (-30.0 30.0)
  end
  begin
     id 12 
     name upperback
     direction 0.0370973 0.999169 -0.0168941   
     length 2.24876   
     axis 0 0 0   XYZ
    dof rx ry rz
    limits (-20.0 45.0)
           (-30.0 30.0)
           (-30.0 30.0)
  end
  begin
     id 13 
     name thorax
     direction 0.0402726 0.998931 0.0227027   
     length 2.26408   
     axis 0 0 0   XYZ
    dof rx ry rz
    limits (-20.0 45.0)
           (-30.0 30.0)
           (-30.0 30.0)
  end
  begin
     id 14 
     name lowerneck
     direction -0.0733697 0.98508 0.155675   
     length 1.58204   
     axis 0 0 0   XYZ
    dof rx ry rz
    limits (-20.0 45.0)
           (-30.0 30.0)
           (-30.0 30.0)
  end
  begin
     id 15 
     name upperneck
     direction 0.0426554 0.993501 -0.105526   
     length 1.61222   
     axis 0 0 0   XYZ
    dof rx ry rz
    limits (-20.0 45.0)
           (-30.0 30.0)
           (-30.0 30.0)
  end
  begin
     id 16
     name head
     direction 0.020792 0.998384 -0.0528868  
     length 1.61527  
     axis 0 0 0   XYZ
    dof rx ry rz
    limits (-20.0 45.0)
           (-30.0 30.0)
           (-30.0 30.0)
  end
  begin
     id 17 
     name lclavicle
     direction 0.967109 0.155462 -0.201325  
     length 3.59357  
     axis 0 0 0   XYZ
    dof ry rz
    limits (-20.0 10.0)
           (0.0 20.0)
  end
  begin
     id 18 
     name lhumerus
     direction 1 -4.48968e-011 2.38195e-027   
     length 5.38154   
     axis 180 -30 -90   XYZ
    dof rx ry rz
    limits (-60.0 90.0)
           (-90.0 90.0)
           (-90.0 90.0)
  end
  begin
     id 19
     name lradius
     direction 1 -4.48961e-011 4.85371e-027   
     length 3.33312   
     axis 180 -30 -90   XYZ
    dof rx
    limits (-10.0 170.0)
  end
  begin
     id 20
     name lwrist
     direction 1 -4.48961e-011 4.76515e-027   
     length 1.66656   
     axis -3.27502e-015 90 90   XYZ
    dof ry
    limits (-180.0 0.0)
 end
  begin
     id 21 
     name lhand
     direction 1 -4.48951e-011 9.53074e-027   
     length 0.710789   
     axis -6.08098e-015 90 90   XYZ
    dof rx rz
    limits (-90.0 90.0)
           (-45.0 45.0)
  end
  begin
     id 22 
     name lfingers
     direction 1 -4.48953e-011 1.90613e-026   
     length 0.573057   
     axis -1.21619e-014 90 90   XYZ
    dof rx
    limits (0.0 90.0)
  end
  begin
     id 23
     name lthumb
     direction 0.707107 -6.34973e-011 0.707107   
     length 0.822798   
     axis -90 45 -9.86923e-015   XYZ
    dof rx rz
    limits (-45.0 45.0)
           (-45.0 45.0)
  end
  begin
     id 24 
     name rclavicle
     direction -0.9585 0.265289 -0.104398   
     length 3.42039  
     axis 0 0 0   XYZ 
    dof ry rz
    limits (-10.0 20.0)
           (-20.0 0.0)
  end
  begin
     id 25 
     name rhumerus
     direction -1 -4.48977e-011 2.21478e-027  
     length 5.16954   
     axis 180 30 90   XYZ
    dof rx ry rz
    limits (-90.0 60.0)
           (-90.0 90.0)
           (-90.0 90.0)
  end
  begin
     id 26 
     name rradius
     direction -1 -4.48967e-011 5.63677e-027   
     length 3.38287   
     axis 180 30 90   XYZ
    dof rx
    limits (-10.0 170.0)
  end
  begin
     id 27 
     name rwrist
     direction -1 -4.48967e-011 4.76501e-027   
     length 1.69144   
     axis -3.27502e-015 -90 -90   XYZ
    dof ry
    limits (-180.0 0.0)
  end
  begin
     id 28
     name rhand
     direction -1 -4.48902e-011 9.53292e-027   
     length 0.817967   
     axis -6.08098e-015 -90 -90   XYZ
    dof rx rz
    limits (-90.0 90.0)
           (-45.0 45.0)
  end
  begin
     id 29
     name rfingers
     direction -1 -4.49012e-011 1.90561e-026   
     length 0.659466   
     axis -1.21619e-014 -90 -90   XYZ
    dof rx
    limits (0.0 90.0)
  end
  begin
     id 30
     name rthumb
     direction -0.707107 -6.34944e-011 0.707107   
     length 0.946865   
     axis -90 -45 9.86923e-015   XYZ
    dof rx rz
    limits (-45.0 45.0)
           (-45.0 45.0)
  end
:hierarchy
  begin
    root lhipjoint rhipjoint lowerback
    lhipjoint lfemur
    lfemur ltibia
    ltibia lfoot
    lfoot ltoes
    rhipjoint rfemur
    rfemur rtibia
    rtibia rfoot
    rfoot rtoes
    lowerback upperback
    upperback thorax
    thorax lowerneck lclavicle rclavicle
    lowerneck upperneck
    upperneck head
    lclavicle lhumerus
    lhumerus lradius
    lradius lwrist
    lwrist lhand lthumb
    lhand lfingers
    rclavicle rhumerus
    rhumerus rradius
    rradius rwrist
    rwrist rhand rthumb
    rhand rfingers
  end

#!OML:ASF F:\twosubjects\two\wednesday\Session 1\Justin1.ASF
:FULLY-SPECIFIED
:DEGREES
62
root -3.17054 18.1213 15.8765 -171.475 4.97359 -182.452
lowerback 4.51594 -0.857989 -5.69957
upperback -0.41277 -1.39369 1.96382
thorax -2.77927 -0.591133 5.34071
lowerneck -17.2295 -2.11314 -11.042
upperneck 13.2588 -0.208012 1.33452
head 6.92191 -0.492289 2.19584
rclavicle -2.74323e-014 7.55382e-015
rhumerus -48.0231 -39.397 -48.8566
rradius 50.7883
rwrist -34.0479
rhand -21.4253 22.6663
rfingers 7.12502
rthumb 4.96368 -7.25552
lclavicle -2.74323e-014 7.55382e-015
lhumerus -33.7395 14.5309 81.025
lradius 32.11
lwrist -9.01442
lhand -1.98789 37.8499
lfingers 7.12502
lthumb 23.685 66.4106
rfemur -9.67437 3.96049 10.9766
rtibia 56.4714
rfoot 12.1003 2.97936
rtoes -3.38039
lfemur -21.739 2.58358 -27.296
ltibia 21.0742
lfoot -4.46865 -5.32403
ltoes 6.40479
63
root -3.2081 18.1174 15.7542 -171.622 4.56641 -182.9
lowerback 4.55966 -0.893358 -5.96064
upperback -0.273935 -1.46192 1.74521
thorax -2.65002 -0.631261 5.26261
lowerneck -17.8127 -2.25545 -11.134
upperneck 13.664 -0.3391 1.56847
head 7.16098 -0.555367 2.27524
rclavicle -9.54166e-015 5.96354e-015
rhumerus -48.3971 -40.3715 -47.9247
rradius 51.9579
rwrist -34.6954
rhand -22.0612 23.1023
rfingers 7.12502
rthumb 4.34967 -6.83299
lclavicle -9.54166e-015 5.96354e-015
lhumerus -33.1008 13.8545 80.9133
lradius 32.4485
lwrist -9.01899
lhand -1.66447 37.8403
lfingers 7.12502
lthumb 23.9952 66.3606
rfemur -10.8877 3.65778 10.4715
rtibia 58.2712
rfoot 10.5806 1.98765
rtoes -2.18205
lfemur -20.8823 2.67347 -28.018
ltibia 20.565
lfoot -4.87991 -5.83381
ltoes 6.34908
64
root -3.24336 18.1042 15.6387 -171.654 4.01034 -183.204
lowerback 4.57589 -0.81709 -6.0902
upperback 0.0521905 -1.36176 1.54823
thorax -2.33554 -0.598403 5.11858
lowerneck -19.1435 -2.63149 -11.0412
upperneck 14.2634 -0.740812 1.78443
head 7.60862 -0.747031 2.28668
rclavicle -1.68967e-015 1.66979e-014
rhumerus -48.742 -42.1555 -46.7662
rradius 52.9412
rwrist -34.9033
rhand -22.6737 23.7137
rfingers 7.12502
rthumb 3.75822 -6.23289
lclavicle -1.68967e-015 1.66979e-014
lhumerus -31.6601 13.1171 81.0047
lradius 32.417
lwrist -9.08296
lhand -1.66922 36.6389
lfingers 7.12502
lthumb 23.9906 65.1598
rfemur -12.1645 3.19855 10.1788
rtibia 59.9638
rfoot 8.93772 1.07929
rtoes -1.49706
lfemur -20.2292 2.64751 -28.5591
ltibia 20.2114
lfoot -5.27291 -6.28662
ltoes 6.64233
65
root -3.26446 18.107 15.5197 -171.68 3.32674 -182.963
lowerback 4.68611 -1.18803 -6.00963
upperback -0.282664 -1.86092 1.87022
thorax -2.67085 -0.827623 5.44968
lowerneck -17.7072 -2.4092 -11.5016
upperneck 13.7951 -0.496813 1.77922
head 7.1994 -0.634158 2.38691
rclavicle -4.07509e-015 2.78299e-014
rhumerus -49.0136 -41.6503 -45.7422
rradius 53.9661
rwrist -35.2347
rhand -23.2398 23.8923
rfingers 7.12502
rthumb 3.21152 -6.06328
lclavicle -4.07509e-015 2.78299e-014
lhumerus -32.2025 13.6739 80.5872
lradius 32.7498
lwrist -9.24225
lhand -1.82555 35.8274
lfingers 7.12502
lthumb 23.8407 64.3679
rfemur -13.2974 2.98782 10.7298
rtibia 61.3494
rfoot 7.5125 -0.362473
rtoes -2.36109
lfemur -19.5269 2.52718 -28.3557
ltibia 19.9231
lfoot -5.63237 -6.81147
ltoes 8.07242
66
root -3.28367 18.1204 15.3965 -171.725 2.63199 -182.361
lowerback 4.83462 -1.43842 -5.47334
upperback -0.382021 -2.16288 2.1408
thorax -2.82425 -0.975079 5.4548
lowerneck -17.4311 -2.32851 -11.6604
upperneck 13.6598 -0.381254 1.77386
head 7.10182 -0.580829 2.42279
rclavicle 2.3556e-014 9.14409e-015
rhumerus -49.1422 -41.6837 -44.8895
rradius 55.1514
rwrist -35.8757
rhand -23.811 23.6969
rfingers 7.12502
rthumb 2.65991 -6.26625
lclavicle 2.3556e-014 9.14409e-015
lhumerus -32.2422 13.4524 80.3178
lradius 33.4317
lwrist -9.10066
lhand -1.55059 36.3776
lfingers 7.12502
lthumb 24.1044 64.8834
rfemur -14.3484 2.98139 11.7195
rtibia 62.4435
rfoot 6.65956 -1.93292
rtoes -2.61338
lfemur -18.8728 2.33727 -27.7205
ltibia 19.7953
lfoot -5.91921 -7.32363
ltoes 6.93958
67
root -3.30491 18.124 15.2722 -171.894 2.14501 -182.149
lowerback 4.89768 -1.54265 -5.39928
upperback -0.321654 -2.29225 2.281
thorax -2.77659 -1.04158 5.56878
lowerneck -17.3932 -2.33284 -11.9068
upperneck 13.6152 -0.365221 1.96089
head 7.08061 -0.56767 2.52521
rclavicle -4.87022e-015 -7.95139e-015
rhumerus -49.2008 -42.0981 -43.9353
rradius 56.2984
rwrist -36.6405
rhand -24.5449 24.1286
rfingers 7.12502
rthumb 1.95108 -5.84221
lclavicle -4.87022e-015 -7.95139e-015
lhumerus -32.0608 13.0266 80.1789
lradius 34.1923
lwrist -8.97624
lhand -1.22836 36.9006
lfingers 7.12502
lthumb 24.4133 65.3652
rfemur -15.2941 2.96292 12.1523
rtibia 63.3645
rfoot 5.8103 -3.01634
rtoes -0.513779
lfemur -18.2254 2.19836 -27.5452
ltibia 19.8271
lfoot -6.25155 -7.63827
ltoes 5.57931
68
root -3.33198 18.1219 15.1444 -171.866 1.67765 -182.285
lowerback 4.72693 -1.61766 -5.62864
upperback -0.371066 -2.39856 2.31149
thorax -2.70738 -1.09311 5.73209
lowerneck -17.0746 -2.35376 -12.0699
upperneck 13.4887 -0.40999 2.03533
head 6.9897 -0.585729 2.57004
rclavicle -3.27001e-014 5.1684e-015
rhumerus -49.4644 -42.6233 -42.7304
rradius 57.3835
rwrist -37.2012
rhand -25.5224 24.9199
rfingers 7.12502
rthumb 1.007 -5.05747
lclavicle -3.27001e-014 5.1684e-015
lhumerus -31.8392 12.6501 80.0487
lradius 34.5861
lwrist -8.72961
lhand -1.46296 36.5205
lfingers 7.12502
lthumb 24.1884 65.0152
rfemur -16.4676 2.85051 12.1645
rtibia 64.1751
rfoot 4.79159 -3.82348
rtoes 0.447692
lfemur -17.8045 2.17847 -27.7964
ltibia 19.8617
lfoot -6.7593 -8.07785
ltoes 7.25225
69
root -3.36421 18.1158 15.0236 -171.586 1.14205 -182.393
lowerback 4.63784 -1.63744 -5.56303
upperback -0.495352 -2.42437 2.21399
thorax -2.78972 -1.10276 5.59344
lowerneck -17.5213 -2.45377 -12.03
upperneck 13.7947 -0.511533 2.1493
head 7.17215 -0.634378 2.59233
rclavicle -1.799e-014 5.96354e-015
rhumerus -50.0512 -43.3961 -41.3589
rradius 58.5907
rwrist -37.7065
rhand -26.2844 25.2574
rfingers 7.12502
rthumb 0.271056 -4.72217
lclavicle -1.799e-014 5.96354e-015
lhumerus -31.2312 12.1739 79.9226
lradius 34.8404
lwrist -8.46807
lhand -1.63165 36.5396
lfingers 7.12502
lthumb 24.0266 65.0557
rfemur -18.0013 2.71128 12.1847
rtibia 64.9039
rfoot 3.84036 -4.47088
rtoes -0.257416
lfemur -17.667 2.13276 -28.0254
ltibia 19.8744
lfoot -7.14975 -8.68291
ltoes 10.5375
70
root -3.3917 18.1067 14.9061 -171.556 0.609171 -182.48
lowerback 4.82961 -1.68365 -5.54012
upperback -0.536626 -2.4978 2.15707
thorax -2.93397 -1.13426 5.5343
lowerneck -17.9413 -2.55126 -12.0718
upperneck 13.9836 -0.615183 2.35212
head 7.31242 -0.676451 2.65564
rclavicle -1.19271e-014 5.56597e-015
rhumerus -50.5252 -44.0623 -40.0879
rradius 59.8985
rwrist -38.2453
rhand -26.7873 25.5546
rfingers 7.12502
rthumb -0.214679 -4.42505
lclavicle -1.19271e-014 5.56597e-015
lhumerus -30.8162 11.9306 79.7803
lradius 35.4466
lwrist -8.35149
lhand -1.88988 36.947
lfingers 7.12502
lthumb 23.779 65.4956
rfemur -19.2069 2.67566 12.2302
rtibia 65.4775
rfoot 2.65852 -4.90978
rtoes 2.17489
lfemur -17.2465 1.75383 -28.1309
ltibia 19.912
lfoot -7.35138 -8.97825
ltoes 14.4271
71
root -3.41532 18.0938 14.7854 -171.661 0.0785986 -182.624
lowerback 4.83816 -1.83458 -5.80527
upperback -0.540911 -2.73459 2.2327
thorax -2.8967 -1.25737 5.77975
lowerneck -17.5317 -2.56518 -12.0982
upperneck 13.6718 -0.665816 2.23971
head 7.14489 -0.700983 2.61448
rclavicle 9.74045e-015 -3.49861e-014
rhumerus -50.5568 -44.4013 -39.0372
rradius 61.1342
rwrist -38.7189
rhand -27.4942 25.8647
rfingers 7.12502
rthumb -0.897397 -4.11316
lclavicle 9.74045e-015 -3.49861e-014
lhumerus -30.8916 11.8385 79.6135
lradius 36.3384
lwrist -7.9138
lhand -2.74819 37.2433
lfingers 7.12502
lthumb 22.9556 65.8966
rfemur -20.2249 2.71521 12.2565
rtibia 65.8971
rfoot 1.11504 -5.24873
rtoes 3.13776
lfemur -16.6948 1.47916 -28.3067
ltibia 20.0309
lfoot -7.86683 -9.31915
ltoes 15.8344
72
root -3.43774 18.0839 14.6665 -171.683 -0.439988 -182.684
lowerback 4.80758 -1.94966 -5.99706
upperback -0.582842 -2.89664 2.30445
thorax -2.8876 -1.33401 5.97363
lowerneck -17.1023 -2.57183 -11.8229
upperneck 13.259 -0.715692 1.75147
head 6.93971 -0.737067 2.40149
rclavicle 3.45885e-014 4.77083e-015
rhumerus -50.5551 -44.8453 -37.9684
rradius 62.2517
rwrist -38.8238
rhand -28.6229 26.1975
rfingers 7.12502
rthumb -1.98747 -3.77299
lclavicle 3.45885e-014 4.77083e-015
lhumerus -30.9103 11.6278 79.4193
lradius 37.1478
lwrist -7.47743
lhand -3.02159 36.8512
lfingers 7.12502
lthumb 22.6932 65.5368
rfemur -21.349 2.80915 12.4266
rtibia 66.1647
rfoot 0.443523 -6.00579
rtoes 2.76694
lfemur -16.2433 1.48385 -28.4295
ltibia 20.1116
lfoot -8.30495 -9.94131
ltoes 13.8485
73
root -3.45844 18.0735 14.5516 -171.66 -1.06149 -182.57
lowerback 4.88034 -2.04784 -5.91922
upperback -0.647431 -3.02734 2.35849
thorax -2.97769 -1.39525 5.99969
lowerneck -16.7882 -2.57112 -11.5687
upperneck 12.8915 -0.7664 1.41844
head 6.76869 -0.763427 2.24479
rclavicle 1.22253e-014 -7.95139e-016
rhumerus -50.6974 -45.4876 -36.7991
rradius 63.3945
rwrist -38.984
rhand -29.6813 26.8374
rfingers 7.12502
rthumb -3.00971 -3.12112
lclavicle 1.22253e-014 -7.95139e-016
lhumerus -30.6646 11.3203 79.2808
lradius 37.8388
lwrist -6.92303
lhand -3.10443 36.0855
lfingers 7.12502
lthumb 22.6137 64.7808
rfemur -22.476 2.92788 12.7856
rtibia 66.3614
rfoot -0.436558 -6.50583
rtoes 2.31976
lfemur -15.9208 1.30905 -28.3103
ltibia 20.3078
lfoot -8.54337 -10.5671
ltoes 11.4445
